<svg xmlns="http://www.w3.org/2000/svg" version="1.1" xmlns:xlink="http://www.w3.org/1999/xlink" xmlns:svgjs="http://svgjs.dev/svgjs" width="1440" height="560" preserveAspectRatio="none" viewBox="0 0 1440 560">
    <g mask="url(&quot;#SvgjsMask1036&quot;)" fill="none">
        <rect width="1440" height="560" x="0" y="0" fill="url(&quot;#SvgjsLinearGradient1037&quot;)"></rect>
        <path d="M1108.41 461.45a26.19 26.19 0 1 0 52.24 3.84z" fill="#d3b714"></path>
        <path d="M663.51 92.94a16.92 16.92 0 1 0-13.8-30.89z" fill="#e73635"></path>
        <path d="M1157.54 377.01L1200.79 377.01L1200.79 420.26L1157.54 420.26z" stroke="#037b0b"></path>
        <path d="M48.39 191.76a46.5 46.5 0 1 0 9.96 92.47z" fill="#d3b714"></path>
        <path d="M1437.11 33.19L1443.14 33.19L1443.14 39.22L1437.11 39.22z" stroke="#e73635"></path>
        <path d="M544.07 485.32a18.62 18.62 0 1 0-5.85-36.78z" fill="#037b0b"></path>
        <path d="M93.91 119.02L133.93 119.02L133.93 159.04L93.91 159.04z" stroke="#e73635"></path>
        <path d="M117.53 294.26L151.24 294.26L151.24 327.97L117.53 327.97z" stroke="#e73635"></path>
        <path d="M-25.66 253.89 a39.84 39.84 0 1 0 79.68 0 a39.84 39.84 0 1 0 -79.68 0z" stroke="#d3b714"></path>
        <path d="M143.57 322.43L189.4 322.43L189.4 368.26L143.57 368.26z" stroke="#e73635"></path>
        <path d="M1279.54 458.1L1327.08 458.1L1327.08 497.46L1279.54 497.46z" fill="#d3b714"></path>
        <path d="M1376.23 504.46L1396.86 504.46L1396.86 560.27L1376.23 560.27z" fill="#e73635"></path>
        <path d="M567.49 419.23 a7.06 7.06 0 1 0 14.12 0 a7.06 7.06 0 1 0 -14.12 0z" fill="#e73635"></path>
        <path d="M602.01 277.32 a40.83 40.83 0 1 0 81.66 0 a40.83 40.83 0 1 0 -81.66 0z" stroke="#d3b714"></path>
        <path d="M119.28 187.14 a47.92 47.92 0 1 0 95.84 0 a47.92 47.92 0 1 0 -95.84 0z" fill="#037b0b"></path>
        <path d="M1204.28 469.05L1233.6 469.05L1233.6 493.97L1204.28 493.97z" stroke="#d3b714"></path>
        <path d="M370.29 337.73L415.84 337.73L415.84 383.28L370.29 383.28z" stroke="#e73635"></path>
        <path d="M908.28 494.77 a42.64 42.64 0 1 0 85.28 0 a42.64 42.64 0 1 0 -85.28 0z" fill="#037b0b"></path>
        <path d="M1366.91 419.52a6.1 6.1 0 1 0-3.63-11.65z" stroke="#d3b714"></path>
        <path d="M790.69 9.12L803.23 9.12L803.23 21.66L790.69 21.66z" fill="#e73635"></path>
        <path d="M790.47 327.94L798.97 327.94L798.97 383.32L790.47 383.32z" fill="#d3b714"></path>
        <path d="M836.65 307.65 a38.49 38.49 0 1 0 76.98 0 a38.49 38.49 0 1 0 -76.98 0z" stroke="#037b0b"></path>
        <path d="M463.28 94.01 a53.61 53.61 0 1 0 107.22 0 a53.61 53.61 0 1 0 -107.22 0z" fill="#d3b714"></path>
        <path d="M11.7 99.34L28.14 99.34L28.14 115.78L11.7 115.78z" stroke="#e73635"></path>
        <path d="M821.46 402.55 a2.13 2.13 0 1 0 4.26 0 a2.13 2.13 0 1 0 -4.26 0z" fill="#e73635"></path>
        <path d="M430.2 485.29a52.75 52.75 0 1 0 93.28-49.28z" stroke="#e73635"></path>
        <path d="M1078.76 149.33a43.43 43.43 0 1 0 30.61-81.28z" fill="#037b0b"></path>
        <path d="M1268.16 429.48a52.07 52.07 0 1 0-27.99 100.31z" stroke="#037b0b"></path>
        <path d="M1226.82 148.3 a45.03 45.03 0 1 0 90.06 0 a45.03 45.03 0 1 0 -90.06 0z" fill="#e73635"></path>
        <path d="M1262.98 352.85 a32.91 32.91 0 1 0 65.82 0 a32.91 32.91 0 1 0 -65.82 0z" stroke="#d3b714"></path>
        <path d="M1044.07 10.8a14.01 14.01 0 1 0-5.41 27.49z" stroke="#d3b714"></path>
        <path d="M1296.82 44.13L1330.66 44.13L1330.66 52.2L1296.82 52.2z" stroke="#d3b714"></path>
        <path d="M461.2 9.31L473.18 9.31L473.18 12.07L461.2 12.07z" fill="#037b0b"></path>
    </g>
    <defs>
        <mask id="SvgjsMask1036">
            <rect width="1440" height="560" fill="#ffffff"></rect>
        </mask>
        <linearGradient x1="0%" y1="50%" x2="100%" y2="50%" gradientUnits="userSpaceOnUse" id="SvgjsLinearGradient1037">
            <stop stop-color="#0e2a47" offset="0"></stop>
            <stop stop-color="#00459e" offset="1"></stop>
        </linearGradient>
    </defs>
</svg>
